# xmcd CD database file
#
# Track frame offsets:
#	150
#	18446
#	38863
#	63526
#	79988
#	96943
#	113778
#	136307
#	154373
#	166239
#	182236
#	200857
#
# Disc length: 2851 seconds
#
# Revision: 1
# Processed by: cddbd v1.5.1PL2 Copyright (c) Steve Scherf et al.
# Submitted via: CDex 1.51
#
DISCID=aa0b210c
DTITLE=Paul Soniat - Born In New Orleans
DYEAR=2005
DGENRE=New Orleans
TTITLE0=Born In New Orleans
TTITLE1=You And I
TTITLE2=No Guarantee On Love
TTITLE3=Old Man
TTITLE4=Liquor Dreams
TTITLE5=My Garden
TTITLE6=Down In The Quarter
TTITLE7=Late Last Night
TTITLE8=Queen Of The Blues
TTITLE9=Jazz Fest
TTITLE10=Face Of An Angel
TTITLE11=Rich Bitch From The Garden District
EXTD=YEAR: 2005
EXTT0=
EXTT1=
EXTT2=
EXTT3=
EXTT4=
EXTT5=
EXTT6=
EXTT7=
EXTT8=
EXTT9=
EXTT10=
EXTT11=
PLAYORDER=
